<svg class="child" xmlns="http://www.w3.org/2000/svg" x="0px" y="0px" viewBox="0 0 144 110" xml:space="preserve">
<filter id="shadow">
	<feDropShadow dx="2" dy="2" stdDeviation="40" flood-color="#1E2023" flood-opacity=".5"/>
</filter>
<g filter="url(#shadow)">
<path fill="#fff" d="m33.429 75.259c-0.07241-0.0148-0.25651-0.0853-0.32236-0.12201-0.10554-0.0589-0.21023-0.18005-0.27301-0.31606-0.06604-0.14274-0.07652-0.17651-0.10581-0.33831-0.03011-0.16643-0.02902-0.21085 0.0098-0.34948 0.08028-0.28725 0.21648-0.50038 0.51807-0.8104 0.22438-0.23069 0.26558-0.28429 0.44123-0.57513 0.09751-0.16139 0.23762-0.43795 0.26125-0.51566 0.0065-0.0207 0.02784-0.0741 0.04762-0.11667 0.07706-0.16792 0.19376-0.56832 0.194-0.6659 1.75e-4 -0.0337-0.034-0.0764-0.16131-0.20255-0.20679-0.20464-0.23528-0.26683-0.23276-0.51007 0.0019-0.18686 0.02369-0.29928 0.12378-0.63862 0.13599-0.46097 0.14448-0.64685 0.04456-0.97231-0.04128-0.13444-0.29264-0.55948-0.39531-0.66847-0.11549-0.12259-0.44201-0.37049-0.57778-0.43869-0.04688-0.0237-0.16681-0.0975-0.26646-0.16435-0.21724-0.14541-0.40522-0.25291-0.73857-0.42194-0.13708-0.0695-0.30528-0.16258-0.37381-0.20699-0.06855-0.0441-0.15615-0.0989-0.19471-0.12143-0.12553-0.0731-0.74445-0.53742-0.96685-0.72532-0.12153-0.10276-0.46056-0.46245-0.57992-0.61534-0.11677-0.14955-0.16604-0.24165-0.21384-0.39881-0.03118-0.10276-0.03384-0.13622-0.02576-0.32673 0.0098-0.23009 0.01096-0.23631 0.19773-0.80406 0.14816-0.45075 0.2091-0.61662 0.38932-1.0591 0.12698-0.31179 0.38517-1.1398 0.36875-1.1826-5e-3 -0.0148-0.05597-0.0468-0.11274-0.074-0.12607-0.0601-0.13992-0.0859-0.10815-0.19959 0.05064-0.18124 0.11052-0.45463 0.13986-0.63859 0.01303-0.0815 0.03483-0.18302 0.04851-0.22566 0.0366-0.11461 0.09062-0.39744 0.13833-0.72426 0.0231-0.15843 0.0634-0.37225 0.08944-0.47506 0.02606-0.10276 0.05703-0.23247 0.06885-0.28814 0.01185-0.0557 0.03865-0.17502 0.05958-0.26474 0.03127-0.13416 0.03968-0.22092 0.04691-0.48289 8e-3 -0.29617 0.0154-0.38809 0.05623-0.72422 0.0234-0.19338 0.05008-1.1259 0.03942-1.3862-0.01392-0.34612-0.03091-0.44459-0.08203-0.48283-0.15722-0.11756-0.50299-0.44283-0.56594-0.53238-0.02192-0.0314-0.03278-0.0328-0.18189-0.0237l-0.15852 6e-3 -0.0083 0.11075c-0.01125 0.15311-0.04637 1.9787-0.04279 2.2368 3e-3 0.21826 0.01806 0.31077 0.05532 0.34175 0.03444 0.0296 0.12888 0.0379 0.17789 0.0178 0.03687-0.0148 0.04798-0.0331 0.06323-0.10128 0.03619-0.16169 0.15713-0.28933 0.27416-0.28933 0.06228 0 0.15056 0.0527 0.20756 0.12378 0.07151 0.0892 0.08176 0.19131 0.03391 0.33778-0.0836 0.25586-0.2264 0.44382-0.40976 0.53965-0.09094 0.0473-0.10587 0.0503-0.26033 0.0503-0.15375 0-0.17028-2e-3 -0.26777-0.0509-0.2524-0.12438-0.43598-0.42031-0.47902-0.77248-0.0098-0.0818-0.01096-0.4052-0.0023-0.91304 0.0071-0.43263 8e-3 -0.79655 0.0015-0.80869-0.0086-0.0178-0.01806-9e-3 -0.0372 0.0266-0.01392 0.0266-0.03124 0.0494-0.03823 0.0494-0.0068 0-0.02133 0.0207-0.03204 0.0426-0.0658 0.14599-0.30856 0.42036-0.5492 0.62135-0.08368 0.0699-0.12515 0.11668-0.13797 0.15547-0.0313 0.0951-0.02577 0.38255 0.01244 0.64457 0.01924 0.13267 0.04285 0.30099 0.05215 0.37382 0.0095 0.0728 0.02369 0.17087 0.03186 0.21825 8e-3 0.0471 0.02133 0.31699 0.02932 0.59968 8e-3 0.28281 0.02133 0.55602 0.03014 0.60743 0.0086 0.0512 0.01599 0.21618 0.01658 0.36602 2.96e-4 0.15015 0.01096 0.39523 0.0234 0.54514 0.01244 0.15013 0.03008 0.38408 0.03897 0.52042 0.0089 0.13652 0.02251 0.27659 0.03035 0.31151 8e-3 0.0349 0.02872 0.17501 0.04637 0.31118 0.02985 0.23009 0.03145 0.29755 0.02251 0.95789-0.0065 0.49483-0.0041 0.75762 0.0083 0.8661 0.0098 0.0856 0.02428 0.25053 0.03245 0.36602 8e-3 0.11579 0.03204 0.32593 0.05348 0.46731 0.03439 0.22654 0.08155 0.59967 0.13605 1.0761 0.0234 0.20551 0.0068 0.52765-0.05245 1.0032-0.02517 0.20315-0.02458 0.47689 0.0014 0.58119 0.01985 0.0791 0.01895 0.0844-0.01451 0.12023-0.03684 0.0391-0.16326 0.0918-0.35389 0.14719-0.12287 0.0358-0.13012 0.0465-0.0871 0.12971 0.03746 0.0722 0.12754 0.37325 0.14496 0.4842 0.05629 0.35878 0.07504 0.63939 0.08648 1.2945 0.0068 0.37826 0.0033 0.53008-0.01569 0.70092-0.02695 0.24195-0.06107 1.2696-0.04279 1.2864 0.01836 0.0178 0.17508 0.0568 0.2686 0.0686 0.21177 0.0266 0.25358 0.11313 0.14736 0.30512-0.12541 0.22683-0.16557 0.33687-0.24283 0.66677-0.07581 0.32365-0.10602 0.51486-0.10652 0.67437-4.72e-4 0.14451 0.0014 0.1528 0.04163 0.19011 0.05549 0.0515 0.13634 0.0818 0.52166 0.19516 0.31071 0.0915 0.60312 0.19308 0.704 0.2449 0.27825 0.14244 0.55775 0.35305 0.71498 0.53885 0.15674 0.18538 0.23054 0.33088 0.24005 0.47382 0.0065 0.0954 3e-3 0.11194-0.03551 0.17028-0.0234 0.0355-0.06426 0.0761-0.09083 0.0904-0.22127 0.11846-0.34737 0.1617-0.65573 0.22448-0.17596 0.0358-0.23143 0.0438-0.45169 0.0645-0.16145 0.0148-0.17214 0.0178-0.36658 0.0521-0.13397 0.0237-0.68076 0.0207-1.0586-6e-3 -0.1242-9e-3 -0.40808-0.0148-0.6308-0.0118l-0.40496 2e-3 -0.15574-0.0497c-0.20848-0.067-0.29867-0.11282-0.38526-0.19574-0.15186-0.14541-0.17357-0.25705-0.15929-0.81926 0.0083-0.32726 5e-3 -0.41821-0.02133-0.63859-0.03026-0.24905-0.04362-0.30428-0.19148-0.79436-0.01688-0.0556-0.04759-0.16761-0.06843-0.24905-0.02636-0.10246-0.08034-0.23424-0.17587-0.42832-0.1738-0.35315-0.21556-0.47228-0.18677-0.53293 0.02547-0.0539 0.13454-0.10987 0.26104-0.13386 0.08262-0.0148 0.09438-0.0237 0.09438-0.0536 0-0.0862-0.06678-0.50536-0.09736-0.61155-0.0313-0.10868-0.03371-0.15162-0.03421-0.61523-5.25e-4 -0.47642 0.0013-0.50807 0.04116-0.71812 0.05804-0.30595 0.08439-0.39988 0.14709-0.5244 0.08523-0.16939 0.07481-0.1993-0.17069-0.49269-0.10682-0.12762-0.16015-0.21055-0.25094-0.38976-0.06341-0.12498-0.14448-0.30106-0.1802-0.39082-0.07428-0.18686-0.08751-0.20493-0.16749-0.23247-0.08167-0.0266-0.51639-0.0393-0.67435-0.0178-0.1237 0.0178-0.3236 0.0966-0.40889 0.16346-0.01688 0.0118-0.04566 0.0892-0.07314 0.19397-0.06991 0.26652-0.30251 0.79859-0.44373 1.0151-0.03071 0.047-0.11623 0.18568-0.19 0.30764-0.07377 0.122-0.13916 0.2218-0.14525 0.2218-0.0062 0-0.03136 0.0296-0.05609 0.066-0.06459 0.0945-0.18846 0.25882-0.24973 0.33138-0.15171 0.17946-0.6031 0.87606-0.74163 1.1445-0.07137 0.1383-0.06145 0.16051 0.11289 0.25113 0.08126 0.042 0.15748 0.0865 0.16948 0.0986 0.03263 0.0325 0.01126 0.0898-0.07135 0.1913-0.30368 0.37284-0.57001 0.89694-0.69185 1.3615-0.02665 0.10188-0.0027 0.14866 0.14534 0.2831 0.27064 0.2455 0.29894 0.46477 0.10063 0.77914-0.04415 0.0701-0.08559 0.12941-0.09201 0.13238-0.0065 2e-3 -0.01155 0.0178-0.01155 0.0328 0 0.0148-0.02636 0.0587-0.05888 0.096-0.03239 0.0376-0.09166 0.11757-0.13169 0.17739-0.22083 0.33069-0.59763 0.53846-1.1324 0.62452-0.08191 0.0118-0.19666 0.034-0.25503 0.0465-0.12503 0.0266-0.48763 0.0296-0.68082 6e-3 -0.28512-0.0343-0.55418-0.15457-0.74485-0.33256-0.08342-0.0779-0.17309-0.30285-0.17351-0.43529-2.34e-4 -0.0791 0.06722-0.36874 0.11514-0.49428 0.02103-0.0553 0.10519-0.23305 0.18695-0.39496 0.08176-0.16228 0.16889-0.34777 0.19361-0.41275 0.05878-0.15458 0.16782-0.51356 0.2678-0.88201l0.08013-0.29525 0.01096-0.31932c0.0095-0.28607 0.01421-0.32602 0.04489-0.384 0.04703-0.0895 0.09529-0.1226 0.2428-0.16791 0.06986-0.0207 0.15233-0.0562 0.18331-0.0776 0.06086-0.0417 0.07012-0.0686 0.16267-0.47311 0.07012-0.30644 0.1462-0.5169 0.29394-0.81325 0.07901-0.15843 0.15319-0.31197 0.1648-0.34115 0.04424-0.11075 0.24864-0.46866 0.37273-0.6525 0.0711-0.10542 0.1818-0.24875 0.24597-0.31865 0.14842-0.16168 0.1489-0.16228 0.20611-0.33868 0.05289-0.16288 0.09399-0.40071 0.09399-0.54398v-0.0924l-0.1207-0.0266c-0.22178-0.047-0.37052-0.10216-0.61258-0.22713-0.13211-0.0682-0.30326-0.15458-0.38036-0.1919-0.07712-0.0376-0.16048-0.0895-0.18529-0.11608-0.04344-0.0462-0.04474-0.0518-0.03512-0.15577 0.0053-0.0592 0.03109-0.18746 0.05689-0.28488 0.02576-0.0975 0.07833-0.31027 0.11677-0.47305 0.13847-0.58612 0.16983-0.70614 0.27476-1.0513 0.05857-0.19279 0.13089-0.40305 0.16071-0.46731 0.10907-0.23483 0.16616-0.40108 0.29962-0.87221 0.03032-0.1072 0.06154-0.22979 0.06935-0.27244 0.02724-0.15014 0.06651-0.5305 0.10021-0.97346 0.01688-0.22004 0.02043-0.25942 0.03011-0.32709 0.0056-0.0385 0.01126-0.20344 0.01273-0.36602 2e-3 -0.22121-0.0033-0.31565-0.02013-0.37381-0.04255-0.14481-0.02162-0.72414 0.0385-1.0747 0.03026-0.1759 0.2205-0.8959 0.24881-0.94174 0.02665-0.0429 0.1258-0.47865 0.17745-0.77935 0.0065-0.0385 0.02369-0.11904 0.03776-0.17915 0.01421-0.0601 0.03723-0.16495 0.05132-0.23366 0.01392-0.0687 0.03168-0.15281 0.03912-0.18686 0.01717-0.0791 0.04679-0.27718 0.05351-0.35821 0.03233-0.38986 0.0424-0.54693 0.05333-0.83332 0.0071-0.1842 0.01658-0.34535 0.02103-0.35821 0.0044-0.0118 0.01244-0.0933 0.01777-0.17857 5e-3 -0.0853 0.01629-0.16198 0.02458-0.17058 0.0083-9e-3 0.0151-0.0471 0.0151-0.0862-6e-5 -0.13356 0.15156-0.69077 0.22909-0.84185 0.01096-0.0207 0.01985-0.0497 0.01985-0.063 2.96e-4 -0.0691 0.28622-0.68079 0.39278-0.84023 0.03148-0.0471 0.09269-0.12052 0.13602-0.16288 0.08866-0.0871 0.09725-0.12585 0.0398-0.17975-0.07131-0.0673-0.03989-0.20818 0.05756-0.25853 0.03504-0.0177 0.07095-0.0237 0.12447-0.0177l0.07522 9e-3 -0.01037-0.0423c-0.0056-0.0207-0.02695-0.0868-0.0475-0.14156-0.05555-0.14865-0.06323-0.30842-0.02192-0.45874 0.01836-0.0673 0.03729-0.17561 0.04193-0.24135 0.01185-0.16702 0.01806-0.18834 0.05979-0.2073 0.04311-0.0207 0.21553 0.0237 0.38108 0.0984 0.05472 0.0237 0.11487 0.0441 0.13368 0.0441 0.05052 0 0.08007-0.0675 0.07303-0.16762-0.0033-0.0459-0.02961-0.0444-0.06755 2e-3 -0.04087 0.0521-0.06071 0.0491-0.12068-0.0178-0.06657-0.0731-0.11893-0.19011-0.14908-0.33359-0.04498-0.21381-0.10285-0.41181-0.15674-0.53625-0.06024-0.13889-0.08321-0.16968-0.14756-0.19604-0.03838-0.0148-0.05502-0.0148-0.1128 0.0148-0.03729 0.0178-0.0724 0.0328-0.07806 0.0328-0.03153 0-0.10406-0.20907-0.10436-0.30075-2.34e-4 -0.0764-0.01688-0.0649-0.08671 0.0601-0.06326 0.11312-0.07433 0.12349-0.10922 0.10424-0.05724-0.032-0.23457-0.49164-0.30175-0.78221-0.13216-0.57146-0.11013-1.298 0.05546-1.8301 0.08689-0.27927 0.2396-0.61759 0.36646-0.81189 0.0666-0.10187 0.31619-0.4201 0.42851-0.54611 0.06234-0.0699 0.51935-0.43171 0.65949-0.52206 0.16969-0.10957 0.40977-0.22269 0.61912-0.29229 0.22364-0.0744 0.36124-0.10364 0.59966-0.12792 0.10066-9e-3 0.18301-0.0207 0.18301-0.0296 0-0.0237-0.17712-0.30481-0.27567-0.43647-0.37327-0.49855-0.79896-0.84784-1.3701-1.1242-1.1259-0.54469-2.4765-0.47989-3.5487 0.17027-0.07712 0.0465-0.17765 0.11313-0.22343 0.14748-0.04578 0.0343-0.08849 0.0565-0.09485 0.0491-0.0065-6e-3 -0.02132-0.0379-0.03279-0.0678-0.01155-0.0299-0.03325-0.0633-0.04801-0.074-0.01481-9e-3 -0.08742-0.11046-0.16148-0.22151-0.54454-0.81751-1.266-1.3802-2.1454-1.6733-0.40249-0.13415-0.74201-0.18716-1.2035-0.18746-0.64068-5.3e-4 -1.137 0.11609-1.7179 0.40423-0.15674 0.0779-0.28764 0.13859-0.29086 0.13533-0.0059-6e-3 0.0071-0.0447 0.06947-0.20551 0.01836-0.047 0.0359-0.0983 0.03927-0.11372 0.01836-0.0841 0.31033-0.80697 0.37544-0.92963 0.02044-0.0385 0.03714-0.0753 0.03714-0.0818 0-0.0506 0.43243-0.92264 0.65831-1.3277 1.2128-2.1747 2.9048-4.026 4.9177-5.3808 1.8828-1.2672 3.9962-2.0778 6.1729-2.3676 0.5411-0.072 1.2682-0.12526 1.7106-0.12526h0.16903l2.37e-4 -0.0429c1.75e-4 -0.0237 0.01421-0.10928 0.03124-0.19071 0.0908-0.43346 0.25397-0.74964 0.44272-0.85791 0.13456-0.0773 0.23658-0.0533 0.37517 0.0874 0.1616 0.16406 0.29624 0.50947 0.36545 0.93701 0.02044 0.12674 0.0092 0.11934 0.21032 0.13711 0.19142 0.0178 0.70871 0.0853 0.9501 0.12615 2.5288 0.42688 4.9263 1.5327 6.9384 3.2001 0.49848 0.41311 1.1754 1.0634 1.6074 1.5441 1.1554 1.2857 2.0861 2.7312 2.796 4.3426 0.13975 0.31725 0.41219 1.0105 0.42843 1.0903 0.0036 0.0178-0.01007 0.0237-0.05754 0.0237-0.03658-5e-4 -0.06917 6e-3 -0.07892 0.0207-0.01362 0.0178-0.03159 0.0207-0.10125 6e-3 -0.31281-0.064-0.97068-0.0954-1.3774-0.0658-0.77088 0.0559-1.4501 0.23099-2.0871 0.53778-0.60761 0.29258-1.122 0.69234-1.4584 1.1333-0.05026 0.0658-0.09828 0.12409-0.10679 0.12942-0.0083 6e-3 -0.07682-0.0207-0.15186-0.0556-0.44785-0.21322-0.93952-0.35611-1.4759-0.42917-0.28035-0.0382-0.94702-0.0388-1.2227-1e-3 -0.22728 0.0311-0.43909 0.0713-0.45519 0.0865-0.0062 6e-3 0.03507 0.042 0.09174 0.0806 0.20235 0.13681 0.48482 0.47684 0.62023 0.7465 0.22897 0.45587 0.32276 0.68425 0.43534 1.0598 0.1173 0.39137 0.14617 0.5108 0.22764 0.94145 0.06178 0.32664 0.14149 0.59792 0.30048 1.0228 0.07178 0.19159 0.14277 0.39501 0.15775 0.45157 0.0151 0.0565 0.06326 0.17205 0.10732 0.25646 0.06775 0.1297 0.09115 0.16021 0.15171 0.19752 0.10024 0.0618 0.2163 0.0892 0.38299 0.0895 0.07874 1.7e-4 0.14745 6e-3 0.15272 0.0148 0.0154 0.0237-0.0092 0.0556-0.20111 0.24994-0.14164 0.14303-0.18079 0.19159-0.17345 0.21499 5e-3 0.0178 0.04958 0.058 0.09858 0.0924 0.06879 0.0482 0.10605 0.0909 0.16332 0.18715 0.1048 0.1765 0.14922 0.27955 0.17691 0.41077 0.03587 0.16998 0.02399 0.28193-0.04498 0.4214-0.0921 0.18628-0.36728 0.45025-0.44408 0.42588-0.01629-6e-3 -0.04984-0.0497-0.07433-0.0986-0.02428-0.0491-0.04863-0.0927-0.05357-0.0969-5e-3 -6e-3 -0.02547-0.0296-0.04596-0.0545-0.02013-0.0266-0.03284-0.0352-0.02784-0.0207 5e-3 0.0148 0.01747 0.0687 0.02813 0.12172 0.03557 0.18093-0.03142 0.28399-0.30016 0.463-0.08395 0.0556-0.15263 0.1072-0.15263 0.11431 0 6e-3 0.04881 0.10276 0.10844 0.21233 0.16889 0.31127 0.29548 0.66444 0.32563 0.90855 0.03584 0.29021 0.06432 1.0045 0.06432 1.6128 0 0.33895 0.0068 0.68072 0.0154 0.75946 0.0083 0.0788 0.0231 0.22388 0.03307 0.32229 0.02251 0.22418 0.03853 0.34438 0.05975 0.44391 0.06388 0.29921 0.17294 1.3011 0.1882 1.7288 0.01273 0.36304 0.01924 0.44551 0.0634 0.81772 0.06983 0.5899 0.09559 0.7818 0.13175 0.98125 0.04471 0.24668 0.08321 0.49982 0.13978 0.91897 0.02251 0.16702 0.05817 0.41234 0.07916 0.54512 0.09029 0.5714 0.09133 0.58138 0.07077 0.67333-0.04566 0.20404-0.19436 0.32789-0.54906 0.45706l-0.20573 0.075-0.07714 0.16436c-0.09399 0.20048-0.19817 0.45196-0.27766 0.67063-0.0327 0.0901-0.07839 0.20907-0.10157 0.26474-0.0231 0.0556-0.08941 0.22388-0.14721 0.37381-0.05777 0.15015-0.13442 0.34616-0.17025 0.43613-0.03586 0.0901-0.09393 0.25112-0.12908 0.3582l-0.06394 0.19457-0.0062 0.33332c-0.0036 0.19723 0.0013 0.3973 0.01214 0.48972 0.01007 0.0862 0.02428 0.34251 0.03127 0.57004 0.0148 0.46393 0.02013 0.49401 0.13604 0.72497 0.17567 0.35062 0.5373 0.79246 0.92893 1.135 0.05034 0.0438 0.16664 0.16169 0.25841 0.26149 0.17821 0.19367 0.23575 0.29785 0.23629 0.42736 3.52e-4 0.0809-0.10264 0.33383-0.27979 0.68694-0.32534 0.64857-0.45834 1.0424-0.50134 1.4845-0.01303 0.13563 0.01985 0.4785 0.06962 0.71756 0.04282 0.20641 0.20673 0.49899 0.49283 0.87894 0.06361 0.0844 0.17108 0.30636 0.20703 0.42742 0.02754 0.0924 0.01274 0.24312-0.03364 0.34499-0.07205 0.15873-0.4302 0.49064-1.0316 0.95655-0.28767 0.2227-0.4566 0.36852-0.68626 0.59165-0.16755 0.16288-0.34728 0.33005-0.39938 0.37156-0.27413 0.21856-0.66823 0.38158-1.0745 0.44448-0.10685 0.0177-0.42958 0.0207-0.49543 6e-3zm-0.18633-10.437c-0.02665-0.0687-0.05674-0.23868-0.09343-0.52567-0.02192-0.17117-0.05067-0.35705-0.06391-0.41276-0.02517-0.10572-0.07924-0.23364-0.09877-0.23364-0.0062 0-0.02784 0.0299-0.04833 0.0661-0.02044 0.0364-0.0698 0.10839-0.10987 0.15962-0.13024 0.16701-0.27938 0.41562-0.27938 0.46552 0 0.0266 0.12678 0.12616 0.27784 0.22033 0.05431 0.034 0.13468 0.0898 0.17866 0.12408 0.11443 0.0892 0.21888 0.16169 0.23439 0.16258 0.0074 4.5e-4 0.0086-0.0118 3e-3 -0.0266zm-5.0276-10.225c0.06858-0.0903 0.1974-0.30792 0.2995-0.50624 0.04465-0.0868 0.09251-0.15251 0.14712-0.20256 0.0759-0.0693 0.23087-0.15902 0.27668-0.16021 0.01125-2.3e-4 0.03362-9e-3 0.04966-0.0207 0.02784-0.0207 0.02636-0.0266-0.03507-0.0954-0.12695-0.14422-0.19625-0.50436-0.13655-0.70969 0.03059-0.10513 0.13246-0.25913 0.22909-0.34593 0.09151-0.0824 0.29575-0.18834 0.40766-0.21144l0.08478-0.0177 0.01155-0.42386c0.0065-0.23306 0.01421-0.53947 0.01806-0.68082 0.0036-0.14126 0.04552-1.665 0.09331-3.3858 0.04777-1.7208 0.08102-3.1346 0.07389-3.1418-0.0071-6e-3 -0.104-0.0296-0.21523-0.047-0.16018-0.0266-0.26703-0.0343-0.51375-0.0346-0.3451-5.1e-4 -0.52504 0.0207-0.83328 0.10039-0.58186 0.15014-1.1092 0.45835-1.5188 0.8879-0.1229 0.12882-0.28091 0.32318-0.2701 0.33205 3e-3 2e-3 0.05105 0.0118 0.10664 0.0237 0.26386 0.0506 0.90382 0.28281 1.1683 0.42371 0.30698 0.16347 0.58971 0.36703 0.80606 0.57966 0.07922 0.0779 0.14407 0.14718 0.14407 0.15339 0 9e-3 -0.0154 0.0118-0.03379 0.0118-0.01836 0-0.07883 6e-3 -0.13388 0.0177l-0.10012 0.0178 0.14706 0.14422c0.38227 0.37425 0.5749 0.87593 0.55264 1.4393-0.0092 0.22922-0.03142 0.32422-0.12832 0.54514-0.04415 0.10068-0.0791 0.20344-0.1783 0.52342-0.02931 0.0948-0.05091 0.25201-0.04863 0.35533 0.0036 0.16524 0.04267 0.24787 0.18144 0.3845 0.13273 0.1309 0.16892 0.18745 0.15751 0.24728-0.01273 0.0666-0.14822 0.4243-0.19101 0.50405-0.03675 0.0687-0.03788 0.0764-0.0154 0.10868 0.01333 0.0207 0.02428 0.0572 0.02428 0.085 0 0.04-0.01273 0.0607-0.06275 0.10069-0.07948 0.0639-0.09077 0.10572-0.04527 0.16702 0.04069 0.055 0.04362 0.13237 0.0065 0.17353-0.01421 0.0148-0.06533 0.0441-0.11392 0.0636-0.16951 0.0678-0.19536 0.0998-0.22015 0.27482-0.02133 0.14926-0.06846 0.2455-0.1754 0.3569-0.15381 0.16022-0.17075 0.16436-0.70103 0.17028-0.26886 2e-3 -0.47423 0.0118-0.51408 0.0207-0.10214 0.0266-0.19619 0.0744-0.21351 0.10661-0.0148 0.0266-5e-3 0.0296 0.20593 0.0358 0.18944 6e-3 0.23353 0.0118 0.30411 0.0429 0.1128 0.0497 0.13604 0.096 0.11345 0.22566-0.02488 0.14333-0.02547 0.14155 0.06855 0.17975 0.10066 0.0408 0.20496 0.12853 0.29036 0.24431 0.0913 0.1235 0.19551 0.3495 0.22385 0.48516 0.09349 0.44767 0.11434 0.5324 0.13113 0.5324 0.0071 0 0.04107-0.0367 0.07525-0.0818zm3.0643-1.4992c0.0053-0.0512 0.01214-0.10395 0.0154-0.11668 0.0036-0.0118 0.02103-0.15636 0.03865-0.3193 0.06305-0.57726 0.09097-0.70504 0.20199-0.92333 0.06616-0.13 0.08748-0.16139 0.22225-0.32696 0.12361-0.15162 0.12429-0.16021 0.02369-0.30017-0.16329-0.22743-0.23045-0.37579-0.19323-0.42631 0.0154-0.0207 0.28337-0.1072 0.43662-0.14096 0.04329-9e-3 0.04418-0.0118 0.03373-0.083-0.0151-0.10187-0.07996-0.25971-0.14878-0.36141-0.11102-0.16376-0.15654-0.18419-0.28823-0.1291-0.06885 0.0296-0.13187 0.0408-0.24345 0.047-0.13477 6e-3 -0.15846 6e-3 -0.22583-0.0266-0.04294-0.0207-0.12337-0.085-0.18722-0.15013-0.09748-0.0995-0.1279-0.1457-0.23546-0.35952-0.14715-0.29228-0.15384-0.31188-0.24449-0.71783-0.06761-0.30268-0.07042-0.32513-0.06358-0.50622 8e-3 -0.21617 0.03684-0.3635 0.0955-0.49063 0.04981-0.10779 0.06198-0.21915 0.03512-0.32065-0.01599-0.0608-0.03115-0.0827-0.07234-0.10573-0.06163-0.0343-0.17268-0.0509-0.20303-0.0302-0.01777 0.0118-0.03047 0.42288-0.07259 2.3331-0.02813 1.2752-0.0549 2.4494-0.05949 2.6093l-0.0083 0.2908 0.10972 0.0178c0.06767 0.0118 0.15541 0.0417 0.22894 0.0791 0.10172 0.0521 0.13495 0.08 0.22678 0.1916 0.13288 0.1617 0.40054 0.40683 0.48427 0.44361l0.06231 0.0266 0.01096-0.0556c0.0059-0.0305 0.0151-0.0978 0.01984-0.14925zm-0.85957-7.6008c0.02695-0.0687 0.08582-0.19812 0.13098-0.28814 0.07629-0.15191 0.08013-0.16524 0.05499-0.18479-0.03663-0.0296-0.28352-0.14836-0.29054-0.14066-0.0033 2e-3 -0.01007 0.22684-0.0154 0.49664l-0.0098 0.49065 0.04045-0.12468c0.02221-0.0687 0.06246-0.18065 0.08935-0.24935zm19.101 62.908c-6.4217-0.98312-12-2.9091-18.078-6.3527-9.5571-5.4772-16.046-12.118-21.16-22.057-2.537-4.896-5.0695-14.051-5.389-19.482-0.66726-11.248 1.4456-20.426 6.8495-29.963 6.4837-11.334 15.494-18.951 27.734-23.44 22.637-8.233 48.388 0.4912 61.671 20.864 0.65761 1.2373 2.2207 4.0374 3.4019 6.3125 1.6721 3.4796 1.8996 3.732 1.1859 1.7219-8.2735-22.784-30.593-37.345-54.874-35.911-5.1906 0.33203-13.108 2.2068-18.032 4.3574-11.305 5.0195-19.888 12.755-25.855 23.394-5.2574 9.4963-7.6896 20.655-6.7902 31.602 0.42551 5.2436 3.2463 14.871 5.6291 19.494 7.5503 14.468 19.743 24.341 35.146 28.438 3.0823 0.88186 9.984 1.8899 11.843 1.7699 0.60617-0.0889-0.82117-0.40362-3.2818-0.74789zm58.957-13.112q-0.87949 0.26284-1.5063 0.26284-1.7691 0-2.2847-0.98059-0.51557-0.99069-0.51557-3.1743 0-2.6486 0.0202-4.721-0.60655 0-1.8803 0.0607l0.0404-0.82895q1.1221 0.0607 1.9308 0.0607 0-1.1019 0.12131-2.9215l0.88961-0.0607q-0.19208 2.3352-0.19208 2.9822 0.8795 0 3.2551-0.1011l-0.0607 0.86939q-2.0825-0.0607-3.2551-0.0607-0.0607 1.7691-0.0607 4.165 0 2.6284 0.56611 3.2956 0.57623 0.65709 1.6276 0.65709 0.29317 0 0.60655-0.0505 0.31338-0.0607 0.77841-0.18197zm-13.93-4.9332q0 2.0522 1.2333 3.2551 1.2434 1.203 3.2349 1.203 0.48523 0 0.90981-0.0809 0.42459-0.091 1.0413-0.29316v0.72785q-0.34372 0.21229-1.0008 0.32349-0.64698 0.1112-1.1727 0.1112-2.2948 0-3.71-1.3748-1.4052-1.3748-1.4052-3.5382 0-1.6478 0.67731-2.7901 0.68742-1.1423 1.7893-1.8095 1.112-0.67732 2.7092-0.67732 1.0412 0 1.6781 0.27295l-0.17185 1.0109q-0.66721-0.2123-1.1221-0.31339-0.4448-0.10109-0.91993-0.10109-0.97047 0-1.8702 0.53578-0.89971 0.53579-1.4052 1.4456-0.49535 0.89971-0.49535 2.0926zm-10.706-0.0607q0 1.9612 1.203 3.245 1.2131 1.2738 3.2652 1.2738 1.5568 0 2.5879-0.31338l-0.14152 0.80873q-0.31339 0.10109-0.97048 0.19207-0.65709 0.10109-1.3951 0.10109-2.6789 0-4.0335-1.4052-1.3445-1.4153-1.3445-3.4876 0-1.1019 0.26283-2.042 0.27295-0.94015 0.80873-1.7186 1.2738-1.6579 3.2754-1.6579 1.7994 0 2.7901 1.1626 1.0008 1.1625 1.0008 2.871 0 0.556-0.0404 0.8896zm0.0607-0.71774h6.3384q0-1.7084-0.73796-2.6284-0.73797-0.91993-2.1836-0.91993-1.3445 0-2.2644 0.90982-0.90982 0.89972-1.1524 2.6385zm-4.7614-6.7327q0-0.28306 0.18197-0.45491 0.19207-0.18197 0.62676-0.18197 0.31339 0 0.46502 0.15164 0.15164 0.14153 0.15164 0.38414 0 0.34372-0.16175 0.61666-0.15163 0.27295-0.57622 0.27295-0.36393 0-0.52567-0.24262-0.16175-0.24262-0.16175-0.54589zm0.9907 9.1892q0 0.77841 0.0505 2.2139 0.0607 1.4254 0.0607 1.9308 0 1.3647-0.556 2.2746-0.5459 0.91993-1.5568 1.3445l-0.27295-0.37404q0.95026-0.85927 1.2232-1.5164 0.27294-0.65709 0.27294-2.4565l-0.0101-3.1035q0-2.4464-0.0607-3.9931-0.0607-1.5568-0.20218-2.5273l1.1322-0.27295q-0.091 1.6478-0.091 3.8617zm-8.2794 3.71q-1.8298 0-3.0631-1.2839-1.2232-1.294-1.2232-3.5382 0-2.598 1.3748-4.1043t3.3663-1.5063q1.577 0 2.9013 1.2131 1.3243 1.203 1.3243 3.6696 0 2.5576-1.385 4.0538-1.3748 1.4962-3.2956 1.4962zm0.18197-9.7553q-1.8601 0-2.7295 1.4355-0.86938 1.4254-0.86938 3.0428 0 2.0218 0.99069 3.3057 0.9907 1.2839 2.6284 1.2839 1.85 0 2.7396-1.4355 0.8896-1.4355 0.8896-3.0327 0-1.9713-1.0109-3.2855t-2.6385-1.3142zm-5.651 0.64699q-0.80873-0.3336-1.6983-0.3336-0.94015 0-1.6377 0.53578-0.68742 0.53579-1.0109 1.5568 0 4.7513 0.08088 6.9551h-0.9907q0.10109-2.7699 0.10109-4.9737 0-2.2948-0.39426-4.6098l0.8896-0.23252q0.23251 1.203 0.25273 1.6377h0.12131q0.62677-0.8896 1.2636-1.3243 0.64698-0.4347 1.3445-0.4347 0.79862 0 1.941 0.3336zm-15.73 0.0809h0.04044q0.46502-0.57622 1.3647-0.95025 0.89971-0.37404 2.0926-0.37404 1.9207 0 3.0125 1.4355 1.1019 1.4254 1.1019 3.3461 0 2.3554-1.3142 3.892-1.3041 1.5366-3.427 1.5366-0.98059 0-1.6781-0.19207-0.68742-0.19207-0.9907-0.45491h-0.08087q0 3.1237 0.06066 5.0141h-1.0918q0.06065-1.3041 0.07076-2.9923 0.01011-1.6882 0.01011-3.6191v-1.8803q0-2.1229-0.05055-3.427-0.05055-1.3041-0.2224-2.3049l0.95026-0.21229zm6.6417 3.5786q0-1.941-0.95026-3.0125-0.95026-1.0817-2.6082-1.0817-1.021 0-1.8095 0.40436-0.7784 0.39426-1.3142 1.0412 0 0.9907 0.05055 2.5374l0.03031 2.0016q0.02021 1.2535 0.02021 1.9814 0.47513 0.34371 1.1626 0.52567 0.69753 0.18197 1.486 0.18197 1.8601 0 2.8912-1.2434 1.0412-1.2535 1.0412-3.336zm86.706-19.675q0 0.51557-0.0607 1.3445l-6.5103 0.1112q0.14153 1.1423 0.98058 1.9005 0.83906 0.75818 2.2038 0.75818 1.5164 0 3.2248-0.4549l-0.20218 1.9612q-1.3951 0.50545-3.4573 0.50545-2.6082 0-4.0032-1.4658-1.385-1.4658-1.385-3.5281 0-2.1532 1.3142-3.7303 1.3243-1.5871 3.6696-1.5871 2.1431 0 3.1844 1.1626t1.0412 3.0226zm-2.3655-0.091q0-2.3251-1.9814-2.3251-1.8904 0-2.2442 2.406zm-7.8042-3.6797q0 0.58633-1.8095 4.8018-1.8095 4.2155-1.8095 4.8018h-2.7598q0-0.64698-1.6073-4.913-1.6074-4.2762-1.6074-4.6906h2.9519q0 0.45491 0.99069 3.518 1.0008 3.053 1.0008 3.5887h0.13141q0-0.48523 0.95026-3.3967t0.95026-3.71zm-11.029 9.6037h-2.7194q0.14153-2.0926 0.14153-4.8018 0-2.689-0.34371-4.7108l2.9114-0.29316q-0.13142 1.9612-0.13142 5.004 0 2.598 0.14152 4.8018zm0.46503-12.657q0 0.68742-0.47513 1.203-0.46503 0.51557-1.3041 0.51557-0.70764 0-1.112-0.44481-0.39425-0.4448-0.39425-1.0716 0-0.68742 0.46502-1.1929 0.47513-0.50546 1.3243-0.50546 0.71775 0 1.1019 0.4448 0.39426 0.43469 0.39426 1.0514zm-4.8524 10.766-0.17185 1.7994q-0.70764 0.30328-1.7792 0.30328-1.6377 0-2.4666-0.8896-0.82895-0.88961-0.82895-3.427 0-1.5265 0.0202-3.4573-0.51557 0-1.3951 0.0607l0.0708-1.9915q0.7784 0.0606 1.4456 0.0606 0.0101-0.53578 0.0809-2.8204l2.3959-0.29317q-0.15163 2.0117-0.15163 3.1136 0.84916 0 2.5374-0.0809l-0.0809 2.0117q-1.5366-0.0607-2.497-0.0607-0.0202 1.3445-0.0202 2.8204 0 1.7994 0.36393 2.4161 0.36393 0.60654 1.2839 0.60654 0.556 0 1.1929-0.17185zm-3.8111-7.7133m-4.1245 9.5936-2.3858 0.0809q-0.16175-0.42458-0.16175-0.76829h-0.13142q-1.112 0.95026-3.0024 0.95026-1.2636 0-2.1027-0.69753-0.82894-0.70764-0.82894-1.8702 0-1.5366 1.294-2.5172 1.3041-0.98058 4.5592-1.0412 0.0202-0.18197 0.0202-0.34372 0-1.0918-0.52567-1.4355-0.52568-0.35382-1.9308-0.35382-1.5265 0-2.9822 0.40436l0.2224-1.8601q1.3748-0.47512 3.8819-0.47512 1.8298 0 2.8204 0.76829 1.0008 0.76829 1.0008 2.689 0 0.42458-0.0404 1.5467-0.0303 1.1221-0.0303 1.4962 0 2.0926 0.3235 3.427zm-2.6991-2.1027q-0.0607-1.3647-0.0607-2.3554-3.4472 0-3.4472 1.7489 0 1.203 1.5164 1.203 1.1929 0 1.9915-0.59644zm-7.7739 2.1128h-2.689q0.2224-2.5576 0.2224-5.1759 0-1.5871-0.47513-2.1532-0.46502-0.56611-1.4254-0.56611-1.1524 0-2.1836 0.78851 0.0506 3.9426 0.0506 7.1067h-2.7194q0.18196-3.1642 0.18196-4.9737 0-2.4161-0.49535-4.5592l2.5879-0.28305 0.17185 1.0716h0.16175q1.385-1.1929 3.1844-1.1929 1.5568 0 2.4868 0.73796 0.94015 0.72786 0.94015 2.6991 0 0.29316-0.0303 0.78851-0.0202 0.48524-0.0202 1.0008 0 1.3647 0.0506 4.7109zm-10.443-9.6037-0.58633 2.3655q-0.74808-0.30327-1.5164-0.30327-1.486 0-1.9612 1.3344 0 4.0336 0.0607 6.207h-2.689q0.17185-3.0428 0.17185-4.9737 0-2.406-0.50545-4.5592l2.5778-0.28305q0.17186 1.112 0.17186 1.3041h0.16175q0.93004-1.4254 2.4767-1.4254 0.72786 0 1.6377 0.3336zm-8.4917 3.7707q0 0.51557-0.0607 1.3445l-6.5103 0.1112q0.14153 1.1423 0.98059 1.9005 0.83905 0.75818 2.2038 0.75818 1.5164 0 3.2248-0.4549l-0.20218 1.9612q-1.3951 0.50545-3.4573 0.50545-2.6082 0-4.0032-1.4658-1.385-1.4658-1.385-3.5281 0-2.1532 1.3142-3.7303 1.3243-1.5871 3.6696-1.5871 2.1431 0 3.1844 1.1626t1.0412 3.0226zm-2.3655-0.091q0-2.3251-1.9814-2.3251-1.8904 0-2.2442 2.406zm-7.9357 4.0335-0.17186 1.7994q-0.70764 0.30328-1.7792 0.30328-1.6377 0-2.4666-0.8896-0.82895-0.88961-0.82895-3.427 0-1.5265 0.0202-3.4573-0.51557 0-1.3951 0.0607l0.0708-1.9915q0.7784 0.0606 1.4456 0.0606 0.0101-0.53578 0.0809-2.8204l2.3959-0.29317q-0.15164 2.0117-0.15164 3.1136 0.84917 0 2.5374-0.0809l-0.0809 2.0117q-1.5366-0.0607-2.497-0.0607-0.0202 1.3445-0.0202 2.8204 0 1.7994 0.36393 2.4161 0.36393 0.60654 1.2838 0.60654 0.55601 0 1.1929-0.17185zm-3.8112-7.7133m-4.4986 9.6037h-2.7598q0.15164-3.4674 0.15164-7.5111 0-3.9426-0.31338-6.7024l2.9215-0.16175q-0.15164 2.8609-0.15164 6.8641 0 4.0639 0.15164 7.5111zm-4.9636-0.0101-2.3858 0.0809q-0.16174-0.42458-0.16174-0.76829h-0.13142q-1.112 0.95026-3.0024 0.95026-1.2636 0-2.1027-0.69753-0.82895-0.70764-0.82895-1.8702 0-1.5366 1.294-2.5172 1.3041-0.98058 4.5592-1.0412 0.02021-0.18197 0.02021-0.34372 0-1.0918-0.52568-1.4355-0.52567-0.35382-1.9308-0.35382-1.5265 0-2.9822 0.40436l0.2224-1.8601q1.3748-0.47512 3.8819-0.47512 1.8298 0 2.8204 0.76829 1.0008 0.76829 1.0008 2.689 0 0.42458-0.04044 1.5467-0.03031 1.1221-0.03031 1.4962 0 2.0926 0.3235 3.427zm-2.6991-2.1027q-0.06065-1.3647-0.06065-2.3554-3.4472 0-3.4472 1.7489 0 1.203 1.5164 1.203 1.1929 0 1.9915-0.59644zm67.721-26.387-0.58633 2.3655q-0.74808-0.30327-1.5164-0.30327-1.486 0-1.9612 1.3344 0 4.0335 0.0607 6.207h-2.689q0.17185-3.0428 0.17185-4.9737 0-2.406-0.50545-4.5592l2.5778-0.28306q0.17186 1.112 0.17186 1.3041h0.16175q0.93004-1.4254 2.4767-1.4254 0.72786 0 1.6377 0.3336zm-8.4917 3.7707q0 0.51557-0.0607 1.3445l-6.5103 0.1112q0.14153 1.1423 0.98059 1.9005 0.83906 0.75819 2.2038 0.75819 1.5164 0 3.2248-0.45491l-0.20218 1.9612q-1.3951 0.50545-3.4573 0.50545-2.6082 0-4.0032-1.4658-1.385-1.4658-1.385-3.5281 0-2.1532 1.3142-3.7303 1.3243-1.5871 3.6696-1.5871 2.1431 0 3.1844 1.1625 1.0412 1.1626 1.0412 3.0226zm-2.3655-0.091q0-2.3251-1.9814-2.3251-1.8904 0-2.2442 2.406zm-8.6635 5.924h-2.689q0.2224-2.5576 0.2224-4.9737 0-1.7994-0.45491-2.3554-0.45491-0.56611-1.4962-0.56611-1.1019 0-2.1634 0.73797 0 4.2964 0.10109 7.1573h-2.689q0.1112-3.1338 0.1112-7.5111 0-4.0335-0.31338-6.7024l2.8609-0.16175q-0.15164 3.2551-0.15164 5.6611h0.13142q1.3344-1.2232 3.053-1.2232 1.6276 0 2.5475 0.73797 0.93004 0.73796 0.93004 2.598 0 0.19207-0.0303 0.78851-0.0202 0.58633-0.0202 0.77841 0 1.6882 0.0506 5.0343zm-10.655-1.8904-0.17185 1.7994q-0.70764 0.30327-1.7792 0.30327-1.6377 0-2.4666-0.8896-0.82894-0.88961-0.82894-3.427 0-1.5265 0.0202-3.4573-0.51557 0-1.3951 0.0607l0.0708-1.9915q0.7784 0.0606 1.4456 0.0606 0.0101-0.53578 0.0809-2.8204l2.3959-0.29317q-0.15164 2.0117-0.15164 3.1136 0.84917 0 2.5374-0.0809l-0.0809 2.0117q-1.5366-0.0607-2.497-0.0607-0.0202 1.3445-0.0202 2.8204 0 1.7994 0.36393 2.4161 0.36393 0.60655 1.2839 0.60655 0.556 0 1.1929-0.17186zm-3.8111-7.7133m-4.1245 9.5936-2.3858 0.0809q-0.16174-0.42459-0.16174-0.7683h-0.13142q-1.112 0.95026-3.0024 0.95026-1.2636 0-2.1027-0.69753-0.82895-0.70764-0.82895-1.8702 0-1.5366 1.294-2.5172 1.3041-0.98059 4.5592-1.0412 0.0202-0.18197 0.0202-0.34371 0-1.0918-0.52567-1.4355-0.52567-0.35382-1.9308-0.35382-1.5265 0-2.9822 0.40437l0.2224-1.8601q1.3748-0.47513 3.8819-0.47513 1.8298 0 2.8204 0.76829 1.0008 0.7683 1.0008 2.689 0 0.42458-0.0404 1.5467-0.0303 1.1221-0.0303 1.4962 0 2.0926 0.32349 3.427zm-2.6991-2.1027q-0.0606-1.3647-0.0606-2.3554-3.4472 0-3.4472 1.7489 0 1.203 1.5164 1.203 1.1929 0 1.9915-0.59644zm-7.3493-3.7202q0 0.51557-0.0606 1.3445l-6.5103 0.1112q0.14153 1.1423 0.98059 1.9005 0.83906 0.75819 2.2038 0.75819 1.5164 0 3.2248-0.45491l-0.20218 1.9612q-1.3951 0.50545-3.4573 0.50545-2.6082 0-4.0032-1.4658-1.385-1.4658-1.385-3.5281 0-2.1532 1.3142-3.7303 1.3243-1.5871 3.6696-1.5871 2.1431 0 3.1844 1.1625 1.0412 1.1626 1.0412 3.0226zm-2.3655-0.091q0-2.3251-1.9814-2.3251-1.8904 0-2.2442 2.406zm-7.8649-3.6797q0 0.57622-1.6882 4.7311-1.6781 4.1548-1.6781 4.8726h-2.3554q0-0.46502-0.82895-2.8609-1.0311-2.9923-1.3142-4.074h-0.16175q-0.26284 1.0412-1.2535 4.0234-0.79862 2.3655-0.79862 2.9114h-2.3655q0-0.61666-1.6073-4.913-1.5972-4.3065-1.5972-4.6906h2.9114q0 0.41447 0.87949 3.4775 0.8896 3.053 0.8896 3.6292h0.15164q0-0.69753 1.0109-3.6191 1.0109-2.9316 1.0109-3.4876h2.3756q0 0.38415 0.98059 3.4876 0.9907 3.1035 0.9907 3.6191h0.14153q0-0.56611 0.8896-3.4371 0.89971-2.8811 0.89971-3.6696z"/>
</g>
</svg>
